HIERARCHY
ROOT hip
{
  OFFSET 0 0 0
  CHANNELS 6 Xposition Yposition Zposition Zrotation Yrotation Xrotation
  JOINT abdomen
  {
    OFFSET 0 20.6881 -0.73152
    CHANNELS 3 Zrotation Xrotation Yrotation
    JOINT chest
    {
      OFFSET 0 11.7043 -0.48768
      CHANNELS 3 Zrotation Xrotation Yrotation
      JOINT neck
      {
        OFFSET 0 22.1894 -2.19456
        CHANNELS 3 Zrotation Xrotation Yrotation
        JOINT head
        {
          OFFSET -0.24384 7.07133 1.2192
          CHANNELS 3 Zrotation Xrotation Yrotation
          JOINT leftEye
          {
            OFFSET 4.14528 8.04674 8.04672
            CHANNELS 3 Zrotation Xrotation Yrotation
            End Site
            {
              OFFSET 1 0 0
            }
          }
          JOINT rightEye
          {
            OFFSET -3.6576 8.04674 8.04672
            CHANNELS 3 Zrotation Xrotation Yrotation
            End Site
            {
              OFFSET 1 0 0
            }
          }
        }
      }
      JOINT rCollar
      {
        OFFSET -2.68224 19.2634 -4.8768
        CHANNELS 3 Zrotation Xrotation Yrotation
        JOINT rShldr
        {
          OFFSET -8.77824 -1.95073 1.46304
          CHANNELS 3 Zrotation Xrotation Yrotation
          JOINT rForeArm
          {
            OFFSET -28.1742 -1.7115 0.48768
            CHANNELS 3 Zrotation Xrotation Yrotation
            JOINT rHand
            {
              OFFSET -22.5879 0.773209 7.07136
              CHANNELS 3 Zrotation Xrotation Yrotation
              JOINT rThumb1
              {
                OFFSET -1.2192 -0.487915 3.41376
                CHANNELS 3 Zrotation Xrotation Yrotation
                JOINT rThumb2
                {
                  OFFSET -3.37035 -0.52449 3.41376
                  CHANNELS 3 Zrotation Xrotation Yrotation
                  End Site
                  {
                    OFFSET -1.78271 -1.18214 1.43049
                  }
                }
              }
              JOINT rIndex1
              {
                OFFSET -7.75947 0.938293 5.60832
                CHANNELS 3 Zrotation Xrotation Yrotation
                JOINT rIndex2
                {
                  OFFSET -2.54057 -0.884171 1.56538
                  CHANNELS 3 Zrotation Xrotation Yrotation
                  End Site
                  {
                    OFFSET -1.62519 -0.234802 1.16502
                  }
                }
              }
              JOINT rMid1
              {
                OFFSET -8.24714 1.18213 3.41376
                CHANNELS 3 Zrotation Xrotation Yrotation
                JOINT rMid2
                {
                  OFFSET -3.10165 -0.590103 1.0647
                  CHANNELS 3 Zrotation Xrotation Yrotation
                  End Site
                  {
                    OFFSET -2.48547 -0.328903 0.83742
                  }
                }
              }
              JOINT rRing1
              {
                OFFSET -8.82822 0.546677 1.51678
                CHANNELS 3 Zrotation Xrotation Yrotation
                JOINT rRing2
                {
                  OFFSET -2.60934 -0.819778 -0.0198488
                  CHANNELS 3 Zrotation Xrotation Yrotation
                  End Site
                  {
                    OFFSET -2.33842 -0.294052 0.168128
                  }
                }
              }
              JOINT rPinky1
              {
                OFFSET -8.27202 -0.0477905 -0.4584
                CHANNELS 3 Zrotation Xrotation Yrotation
                JOINT rPinky2
                {
                  OFFSET -1.82734 -0.647385 -0.700984
                  CHANNELS 3 Zrotation Xrotation Yrotation
                  End Site
                  {
                    OFFSET -1.69225 -0.51767 -0.607171
                  }
                }
              }
            }
          }
        }
      }
      JOINT lCollar
      {
        OFFSET 2.68224 19.2634 -4.8768
        CHANNELS 3 Zrotation Xrotation Yrotation
        JOINT lShldr
        {
          OFFSET 8.77824 -1.95073 1.46304
          CHANNELS 3 Zrotation Xrotation Yrotation
          JOINT lForeArm
          {
            OFFSET 28.1742 -1.7115 0.48768
            CHANNELS 3 Zrotation Xrotation Yrotation
            JOINT lHand
            {
              OFFSET 22.5879 0.773209 7.07136
              CHANNELS 3 Zrotation Xrotation Yrotation
              JOINT lThumb1
              {
                OFFSET 1.2192 -0.487915 3.41376
                CHANNELS 3 Zrotation Xrotation Yrotation
                JOINT lThumb2
                {
                  OFFSET 3.37035 -0.52449 3.41376
                  CHANNELS 3 Zrotation Xrotation Yrotation
                  End Site
                  {
                    OFFSET 1.78271 -1.18214 1.43049
                  }
                }
              }
              JOINT lIndex1
              {
                OFFSET 7.75947 0.938293 5.60832
                CHANNELS 3 Zrotation Xrotation Yrotation
                JOINT lIndex2
                {
                  OFFSET 2.54057 -0.884171 1.56538
                  CHANNELS 3 Zrotation Xrotation Yrotation
                  End Site
                  {
                    OFFSET 1.62519 -0.234802 1.16502
                  }
                }
              }
              JOINT lMid1
              {
                OFFSET 8.24714 1.18213 3.41376
                CHANNELS 3 Zrotation Xrotation Yrotation
                JOINT lMid2
                {
                  OFFSET 3.10165 -0.590103 1.0647
                  CHANNELS 3 Zrotation Xrotation Yrotation
                  End Site
                  {
                    OFFSET 2.48547 -0.328903 0.83742
                  }
                }
              }
              JOINT lRing1
              {
                OFFSET 8.82822 0.546677 1.51678
                CHANNELS 3 Zrotation Xrotation Yrotation
                JOINT lRing2
                {
                  OFFSET 2.60934 -0.819778 -0.0198488
                  CHANNELS 3 Zrotation Xrotation Yrotation
                  End Site
                  {
                    OFFSET 2.33842 -0.294052 0.168128
                  }
                }
              }
              JOINT lPinky1
              {
                OFFSET 8.27202 -0.0477905 -0.4584
                CHANNELS 3 Zrotation Xrotation Yrotation
                JOINT lPinky2
                {
                  OFFSET 1.82734 -0.647385 -0.700984
                  CHANNELS 3 Zrotation Xrotation Yrotation
                  End Site
                  {
                    OFFSET 1.69225 -0.51767 -0.607171
                  }
                }
              }
            }
          }
        }
      }
    }
  }
  JOINT rButtock
  {
    OFFSET -8.77824 4.35084 1.2192
    CHANNELS 3 Zrotation Xrotation Yrotation
    JOINT rThigh
    {
      OFFSET 0 -1.70687 -2.19456
      CHANNELS 3 Zrotation Xrotation Yrotation
      JOINT rShin
      {
        OFFSET 0 -36.8199 0.73152
        CHANNELS 3 Zrotation Xrotation Yrotation
        JOINT rFoot
        {
          OFFSET 0.73152 -45.1104 -5.12064
          CHANNELS 3 Zrotation Xrotation Yrotation
          End Site
          {
            OFFSET -1.1221 -3.69964 12.103
          }
        }
      }
    }
  }
  JOINT lButtock
  {
    OFFSET 8.77824 4.35084 1.2192
    CHANNELS 3 Zrotation Xrotation Yrotation
    JOINT lThigh
    {
      OFFSET 0 -1.70687 -2.19456
      CHANNELS 3 Zrotation Xrotation Yrotation
      JOINT lShin
      {
        OFFSET 0 -36.8199 0.73152
        CHANNELS 3 Zrotation Xrotation Yrotation
        JOINT lFoot
        {
          OFFSET -0.73152 -45.1104 -5.12064
          CHANNELS 3 Zrotation Xrotation Yrotation
          End Site
          {
            OFFSET 1.1221 -3.69964 12.103
          }
        }
      }
    }
  }
}
MOTION
Frames:	4
Frame Time:	0.03333
-0.05730000138282776 78.26309967041016 0.12399999797344208 0.01580000011017546 3.798399902880192 4.962699897587299 -5.733200311660767 7.809960320591927 7.962079793214798 1.061680018901825 -6.582779958844185 2.2104800306260586 -6.054510176181793 11.670500636100769 -6.212879866361618 7.5871700048446655 -23.375100195407867 -10.276199877262115 0.0 0.0 0.0 0.0 0.0 0.0 0.0 0.0 0.0 -16.09119951725006 39.42520022392273 80.36440014839172 -28.386300802230835 -34.024298787117004 73.73900055885315 -0.025944499648176134 -4.568980112671852 -0.6435250164940953 4.4508396968012676e-10 -1.836610863392707e-09 1.0027179087046534e-09 7.673861546209082e-10 -3.1820945878280327e-09 1.7291768017457798e-09 4.4508396968012676e-10 -1.836610863392707e-09 1.0027179087046534e-09 7.7309102565050125 5.474880114197731 0.41731400415301323 4.4508396968012676e-10 -1.836610863392707e-09 1.0027179087046534e-09 2.905540131032467 0.9651830233633518 0.102901995414868 4.4508396968012676e-10 -1.836610863392707e-09 1.0027179087046534e-09 10.27859978377819 0.7318009994924068 0.025912300043273717 4.4508396968012676e-10 -1.836610863392707e-09 1.0027179087046534e-09 2.221670038998127 -0.733487019315362 -0.2089200052432716 0.0 0.0 0.0 -44.21290040016174 54.711302518844604 -28.557398915290833 28.28480064868927 -38.489999771118164 -81.25549972057343 0.147319994866848 -10.85119977593422 1.54386006295681 5.908873390580993e-10 -5.254037205304485e-09 -6.650680006714538e-10 1.0257394933432806e-09 -9.101199793803971e-09 -1.1357315088389441e-09 5.908873390580993e-10 -5.254037205304485e-09 -6.650680006714538e-10 -7.7309102565050125 5.474880114197731 -0.41731400415301323 5.908873390580993e-10 -5.254037205304485e-09 -6.650680006714538e-10 -2.905540131032467 0.9651830233633518 -0.102901995414868 5.908873390580993e-10 -5.254037205304485e-09 -6.650680006714538e-10 -10.27859978377819 0.7318009994924068 -0.025912300043273717 5.908873390580993e-10 -5.254037205304485e-09 -6.650680006714538e-10 -2.221670038998127 -0.733487019315362 0.2089200052432716 0.0 0.0 0.0 2.595550026744604 -35.47279894351959 -1.9639699347317219 -0.7001790124922991 52.588698863983154 1.124229971319437 0.32823400804772973 -16.84389978647232 1.4122599922120571 0.0 0.0 0.0 -10.997199788689613 -34.29740130901337 -9.917870163917542 0.5686439853161573 50.49870014190674 -1.1241599824279547 3.4317000210285187 -15.86150050163269 8.181919679045677
-0.11250000074505806 78.22920227050781 0.2369999960064888 0.027700000209733844 3.514699973165989 4.911700040102005 -5.835480317473412 7.707790285348892 8.222860246896744 1.05836003087461 -6.592449992895126 2.2834399715065956 -6.0920000821352005 11.673400104045868 -6.26753993332386 7.554239854216576 -23.25309991836548 -10.393799990415573 0.0 0.0 0.0 0.0 0.0 0.0 0.0 0.0 0.0 -16.96300059556961 39.77979898452759 81.43850147724152 -28.40529888868332 -34.401699006557465 74.35849964618683 -0.026854499301407486 -4.672769866883755 -0.6581899942830205 4.3996806198265404e-10 -3.2741809263825417e-10 3.9904080040287226e-10 7.622702469234355e-10 -5.678657544194721e-10 6.855316314613447e-10 4.3996806198265404e-10 -3.2741809263825417e-10 3.9904080040287226e-10 7.7309102565050125 5.474880114197731 0.41731400415301323 4.3996806198265404e-10 -3.2741809263825417e-10 3.9904080040287226e-10 2.905540131032467 0.9651830233633518 0.102901995414868 4.3996806198265404e-10 -3.2741809263825417e-10 3.9904080040287226e-10 10.27859978377819 0.7318009994924068 0.025912300043273717 4.3996806198265404e-10 -3.2741809263825417e-10 3.9904080040287226e-10 2.221670038998127 -0.733487019315362 -0.2089200052432716 0.0 0.0 0.0 -45.089001059532166 55.692100524902344 -26.781299114227295 28.21800023317337 -39.04950052499771 -82.23489761352539 0.12837999500334263 -10.162999927997589 1.4436500519514084 -5.88329385209363e-11 8.323581823788118e-09 2.4658675101818517e-09 -1.2533973858808167e-10 1.4539409676217474e-08 4.256435204297304e-09 -5.88329385209363e-11 8.323581823788118e-09 2.4658675101818517e-09 -7.7309102565050125 5.474880114197731 -0.41731400415301323 -5.88329385209363e-11 8.323581823788118e-09 2.4658675101818517e-09 -2.905540131032467 0.9651830233633518 -0.102901995414868 -5.88329385209363e-11 8.323581823788118e-09 2.4658675101818517e-09 -10.27859978377819 0.7318009994924068 -0.025912300043273717 -5.88329385209363e-11 8.323581823788118e-09 2.4658675101818517e-09 -2.221670038998127 -0.733487019315362 0.2089200052432716 0.0 0.0 0.0 2.677829973399639 -35.42160093784332 -1.8053199537098408 -0.7032860163599253 52.65570044517517 1.127769984304905 0.370830986648798 -16.964100301265717 1.5104400739073753 0.0 0.0 0.0 -10.949500054121017 -34.24459934234619 -9.797129854559898 0.572986020706594 50.63740253448486 -1.1325800232589245 3.527589999139309 -15.98859965801239 8.393969759345055
-0.17709999904036522 78.17639923095703 0.37200000137090683 0.06100000231526792 3.346000090241432 4.895399920642376 -5.9299202263355255 7.54055991768837 8.37753988802433 1.1686900164932013 -6.485199853777885 2.3322900384664536 -6.1516497284173965 11.66599988937378 -6.308420151472092 7.458580210804939 -23.103800117969513 -10.49479991197586 0.0 0.0 0.0 0.0 0.0 0.0 0.0 0.0 0.0 -18.015700578689575 40.068501234054565 82.55649983882904 -28.41850072145462 -34.745898842811584 74.92520213127136 -0.015322099352488294 -3.6761800199747086 -0.5172839993610978 2.2254198484006338e-10 -6.804157237638719e-10 1.084572431864217e-09 3.836930773104541e-10 -1.1817746781161986e-09 1.872422217275016e-09 2.2254198484006338e-10 -6.804157237638719e-10 1.084572431864217e-09 7.7309102565050125 5.474880114197731 0.41731400415301323 2.2254198484006338e-10 -6.804157237638719e-10 1.084572431864217e-09 2.905540131032467 0.9651830233633518 0.102901995414868 2.2254198484006338e-10 -6.804157237638719e-10 1.084572431864217e-09 10.27859978377819 0.7318009994924068 0.025912300043273717 2.2254198484006338e-10 -6.804157237638719e-10 1.084572431864217e-09 2.221670038998127 -0.733487019315362 -0.2089200052432716 0.0 0.0 0.0 -46.13380193710327 56.615198850631714 -24.907899498939514 28.146900236606598 -39.55140084028244 -83.12359929084778 0.10476900148205459 -9.195340052247047 1.3036199659109116 1.4580336937797256e-10 1.949160832737107e-09 8.799361239653081e-10 2.4300561562995426e-10 3.4430058803991415e-09 1.524540493846871e-09 1.4580336937797256e-10 1.949160832737107e-09 8.799361239653081e-10 -7.7309102565050125 5.474880114197731 -0.41731400415301323 1.4580336937797256e-10 1.949160832737107e-09 8.799361239653081e-10 -2.905540131032467 0.9651830233633518 -0.102901995414868 1.4580336937797256e-10 1.949160832737107e-09 8.799361239653081e-10 -10.27859978377819 0.7318009994924068 -0.025912300043273717 1.4580336937797256e-10 1.949160832737107e-09 8.799361239653081e-10 -2.221670038998127 -0.733487019315362 0.2089200052432716 0.0 0.0 0.0 2.813040129840374 -35.323700308799744 -1.61530002951622 -0.7040829677134752 52.68050014972687 1.132450019940734 0.33633000450208783 -17.13799998164177 1.414639949798584 0.0 0.0 0.0 -10.858799815177917 -34.21699941158295 -9.649360254406929 0.578192020766437 50.78960180282593 -1.1405399814248085 3.587449863553047 -16.14599972963333 8.49469006061554
-0.24500000104308128 78.12470245361328 0.49400000274181366 0.051399999065324664 3.2945000007748604 4.859600141644478 -5.969510301947594 7.364480271935463 8.484830260276794 1.269349968060851 -6.384279727935791 2.3682700283825397 -6.208570227026939 11.657600551843643 -6.341530010104179 7.36610971391201 -22.90399968624115 -10.581899955868721 0.0 0.0 0.0 0.0 0.0 0.0 0.0 0.0 0.0 -19.09020021557808 40.37640005350113 83.70739817619324 -28.426700234413147 -35.050900876522064 75.4293018579483 -0.007918609844637103 -2.5399200059473515 -0.3571989946067333 -2.8137492336099967e-11 -1.1613110473263077e-09 1.6575540939811617e-09 -5.1159076974727213e-11 -2.0105517251067795e-09 2.8751401259796694e-09 -2.8137492336099967e-11 -1.1613110473263077e-09 1.6575540939811617e-09 7.7309102565050125 5.474880114197731 0.41731400415301323 -2.8137492336099967e-11 -1.1613110473263077e-09 1.6575540939811617e-09 2.905540131032467 0.9651830233633518 0.102901995414868 -2.8137492336099967e-11 -1.1613110473263077e-09 1.6575540939811617e-09 10.27859978377819 0.7318009994924068 0.025912300043273717 -2.8137492336099967e-11 -1.1613110473263077e-09 1.6575540939811617e-09 2.221670038998127 -0.733487019315362 -0.2089200052432716 0.0 0.0 0.0 -47.359700202941895 57.51290202140808 -22.85330057144165 28.071999549865723 -40.017099380493164 -83.95229995250702 0.08115620061289519 -8.100249767303467 1.1461400147527456 4.2462033889023587e-10 -6.921823114680592e-09 -1.3505996321327984e-09 7.418066161335446e-10 -1.2007035365968477e-08 -2.332853910047561e-09 4.2462033889023587e-10 -6.921823114680592e-09 -1.3505996321327984e-09 -7.7309102565050125 5.474880114197731 -0.41731400415301323 4.2462033889023587e-10 -6.921823114680592e-09 -1.3505996321327984e-09 -2.905540131032467 0.9651830233633518 -0.102901995414868 4.2462033889023587e-10 -6.921823114680592e-09 -1.3505996321327984e-09 -10.27859978377819 0.7318009994924068 -0.025912300043273717 4.2462033889023587e-10 -6.921823114680592e-09 -1.3505996321327984e-09 -2.221670038998127 -0.733487019315362 0.2089200052432716 0.0 0.0 0.0 2.9636498540639877 -35.19800126552582 -1.4546400681138039 -0.7038429938256741 52.68560171127319 1.1356300301849842 0.29871799517422915 -17.32449933886528 1.312379976734519 0.0 0.0 0.0 -10.727299824357033 -34.19910103082657 -9.478549808263779 0.5839479994028807 50.951199531555176 -1.1483700200915337 3.631119914352894 -16.31099984049797 8.547540307044983
